<svg width="22" height="14" viewBox="0 0 22 14" fill="none" xmlns="http://www.w3.org/2000/svg">
<path d="M11.0977 4C11.8186 2.02625 14.5415 1.01844 20.4698 1C20.5645 0.999756 20.6584 1.01252 20.7461 1.03756C20.8337 1.0626 20.9133 1.09942 20.9803 1.1459C21.0474 1.19238 21.1004 1.24759 21.1365 1.30837C21.1726 1.36914 21.1911 1.43427 21.1907 1.5V10.5C21.1907 10.6326 21.1147 10.7598 20.9795 10.8536C20.8443 10.9473 20.661 11 20.4698 11C14.7023 11 12.4742 11.8066 11.0977 13M11.0977 4C10.3767 2.02625 7.65389 1.01844 1.72559 1C1.63081 0.999756 1.53691 1.01252 1.44928 1.03756C1.36165 1.0626 1.28203 1.09942 1.21502 1.1459C1.148 1.19238 1.09491 1.24759 1.05881 1.30837C1.02271 1.36914 1.0043 1.43427 1.00466 1.5V10.4397C1.00466 10.7484 1.28041 11 1.72559 11C7.49303 11 9.72926 11.8125 11.0977 13M11.0977 4V13" stroke="white" stroke-linecap="round" stroke-linejoin="round"/>
</svg>
