<svg xmlns="http://www.w3.org/2000/svg" xmlns:xlink="http://www.w3.org/1999/xlink" width="1080" zoomAndPan="magnify" viewBox="0 0 810 809.999993" height="1080" preserveAspectRatio="xMidYMid meet" version="1.0"><defs><clipPath id="833b64f4f6"><path d="M 153 93.65625 L 810 93.65625 L 810 716.15625 L 153 716.15625 Z M 153 93.65625 " clip-rule="nonzero"/></clipPath><clipPath id="b08afe391b"><path d="M 0 93.65625 L 657 93.65625 L 657 716.15625 L 0 716.15625 Z M 0 93.65625 " clip-rule="nonzero"/></clipPath></defs><g clip-path="url(#833b64f4f6)"><path fill="#4700d8" d="M 491.410156 251.675781 C 561.625 251.675781 606.183594 288.121094 608.886719 346.167969 L 810.078125 346.167969 C 800.621094 208.476562 677.753906 93.734375 484.660156 93.734375 C 286.160156 93.734375 153.835938 235.476562 153.835938 405.5625 C 153.835938 575.644531 278.0625 716.039062 484.660156 716.039062 C 665.59375 716.039062 785.777344 613.441406 806.023438 481.15625 L 608.886719 481.15625 C 602.128906 535.152344 553.519531 562.148438 491.410156 562.148438 C 396.886719 562.148438 369.882812 475.757812 369.882812 406.910156 C 369.882812 339.414062 399.589844 251.675781 491.410156 251.675781 Z M 491.410156 251.675781 " fill-opacity="1" fill-rule="nonzero"/></g><g clip-path="url(#b08afe391b)"><path fill="#ff85b3" d="M 337.609375 251.675781 C 407.824219 251.675781 452.378906 288.121094 455.085938 346.167969 L 656.273438 346.167969 C 646.820312 208.476562 523.953125 93.734375 330.859375 93.734375 C 132.359375 93.734375 0.0351562 235.476562 0.0351562 405.5625 C 0.0351562 575.644531 124.261719 716.039062 330.859375 716.039062 C 511.792969 716.039062 631.972656 613.441406 652.222656 481.15625 L 455.085938 481.15625 C 448.328125 535.152344 399.71875 562.148438 337.609375 562.148438 C 243.085938 562.148438 216.078125 475.757812 216.078125 406.910156 C 216.078125 339.414062 245.789062 251.675781 337.609375 251.675781 Z M 337.609375 251.675781 " fill-opacity="1" fill-rule="nonzero"/></g></svg>