<svg width="204" height="53" viewBox="0 0 204 53" fill="none" xmlns="http://www.w3.org/2000/svg">
<path d="M0.24 27.22C0.24 22.3667 1.24333 18.05 3.25 14.27C5.30333 10.4433 8.19667 7.48 11.93 5.38C15.6633 3.23333 19.9567 2.16 24.81 2.16C30.97 2.16 36.15 3.81667 40.35 7.13C44.55 10.3967 47.2567 14.8533 48.47 20.5H33.7C32.8133 18.6333 31.5767 17.21 29.99 16.23C28.45 15.25 26.6533 14.76 24.6 14.76C21.4267 14.76 18.8833 15.9033 16.97 18.19C15.1033 20.43 14.17 23.44 14.17 27.22C14.17 31.0467 15.1033 34.1033 16.97 36.39C18.8833 38.63 21.4267 39.75 24.6 39.75C26.6533 39.75 28.45 39.26 29.99 38.28C31.5767 37.3 32.8133 35.8767 33.7 34.01H48.47C47.2567 39.6567 44.55 44.1367 40.35 47.45C36.15 50.7167 30.97 52.35 24.81 52.35C19.9567 52.35 15.6633 51.3 11.93 49.2C8.19667 47.0533 5.30333 44.09 3.25 40.31C1.24333 36.4833 0.24 32.12 0.24 27.22ZM80.7969 12.38C85.2769 12.38 88.8235 13.8967 91.4369 16.93C94.0969 19.9167 95.4269 23.9767 95.4269 29.11V52H81.7069V30.93C81.7069 28.69 81.1235 26.94 79.9569 25.68C78.7902 24.3733 77.2269 23.72 75.2669 23.72C73.2135 23.72 71.6035 24.3733 70.4369 25.68C69.2702 26.94 68.6869 28.69 68.6869 30.93V52H54.9669V0.199999H68.6869V18.33C69.9002 16.5567 71.5335 15.1333 73.5869 14.06C75.6869 12.94 78.0902 12.38 80.7969 12.38ZM140.475 31.91C140.475 32.9833 140.405 34.0567 140.265 35.13H114.295C114.435 37.2767 115.018 38.8867 116.045 39.96C117.118 40.9867 118.472 41.5 120.105 41.5C122.392 41.5 124.025 40.4733 125.005 38.42H139.635C139.028 41.1267 137.838 43.5533 136.065 45.7C134.338 47.8 132.145 49.4567 129.485 50.67C126.825 51.8833 123.885 52.49 120.665 52.49C116.792 52.49 113.338 51.6733 110.305 50.04C107.318 48.4067 104.962 46.0733 103.235 43.04C101.555 40.0067 100.715 36.4367 100.715 32.33C100.715 28.2233 101.555 24.6767 103.235 21.69C104.915 18.6567 107.248 16.3233 110.235 14.69C113.268 13.0567 116.745 12.24 120.665 12.24C124.538 12.24 127.968 13.0333 130.955 14.62C133.942 16.2067 136.275 18.4933 137.955 21.48C139.635 24.42 140.475 27.8967 140.475 31.91ZM126.475 28.48C126.475 26.8 125.915 25.4933 124.795 24.56C123.675 23.58 122.275 23.09 120.595 23.09C118.915 23.09 117.538 23.5567 116.465 24.49C115.392 25.3767 114.692 26.7067 114.365 28.48H126.475ZM159.81 0.199999V52H146.09V0.199999H159.81ZM181.343 0.199999V52H167.623V0.199999H181.343Z" fill="black"/>
<path d="M195.806 52.56C193.38 52.56 191.42 51.9067 189.926 50.6C188.48 49.2467 187.756 47.5433 187.756 45.49C187.756 43.4367 188.48 41.7333 189.926 40.38C191.42 39.0267 193.38 38.35 195.806 38.35C198.186 38.35 200.1 39.0267 201.546 40.38C203.04 41.7333 203.786 43.4367 203.786 45.49C203.786 47.4967 203.04 49.1767 201.546 50.53C200.1 51.8833 198.186 52.56 195.806 52.56Z" fill="#5200FF"/>
</svg>
