<svg width="11" height="11" viewBox="0 0 11 11" fill="none" xmlns="http://www.w3.org/2000/svg">
<path d="M5.5 0C4.4122 0 3.34884 0.322569 2.44437 0.926917C1.5399 1.53126 0.834947 2.39025 0.418665 3.39524C0.00238307 4.40023 -0.106535 5.5061 0.105683 6.57299C0.317902 7.63989 0.841726 8.6199 1.61091 9.38909C2.3801 10.1583 3.36011 10.6821 4.427 10.8943C5.4939 11.1065 6.59977 10.9976 7.60476 10.5813C8.60975 10.1651 9.46874 9.4601 10.0731 8.55563C10.6774 7.65116 11 6.5878 11 5.5C10.9984 4.0418 10.4184 2.6438 9.3873 1.6127C8.3562 0.581599 6.9582 0.00161752 5.5 0ZM5.5 9.77778C4.65394 9.77778 3.82687 9.52689 3.1234 9.05684C2.41992 8.58679 1.87163 7.91869 1.54785 7.13703C1.22408 6.35537 1.13936 5.49525 1.30442 4.66545C1.46948 3.83564 1.8769 3.07341 2.47516 2.47515C3.07341 1.8769 3.83564 1.46948 4.66545 1.30442C5.49526 1.13936 6.35537 1.22407 7.13703 1.54785C7.9187 1.87162 8.58679 2.41992 9.05684 3.12339C9.52689 3.82687 9.77778 4.65393 9.77778 5.5C9.77656 6.63416 9.32548 7.72153 8.52351 8.5235C7.72153 9.32548 6.63417 9.77656 5.5 9.77778ZM7.61801 7.0894C7.28442 7.53385 6.81946 7.8621 6.28897 8.02765C5.75849 8.1932 5.18936 8.18767 4.66219 8.01185C4.13503 7.83602 3.67653 7.4988 3.35164 7.04795C3.02674 6.5971 2.85192 6.05546 2.85192 5.49974C2.85192 4.94403 3.02674 4.40239 3.35164 3.95154C3.67653 3.50069 4.13503 3.16347 4.66219 2.98764C5.18936 2.81181 5.75849 2.80628 6.28897 2.97184C6.81946 3.13739 7.28442 3.46564 7.61801 3.91009C7.66797 3.97409 7.70468 4.0474 7.726 4.12574C7.74731 4.20408 7.7528 4.28588 7.74215 4.36637C7.73149 4.44686 7.7049 4.52441 7.66394 4.59451C7.62297 4.66461 7.56845 4.72584 7.50356 4.77463C7.43866 4.82342 7.3647 4.85879 7.28598 4.87867C7.20726 4.89855 7.12537 4.90255 7.04509 4.89043C6.96482 4.87831 6.88775 4.85032 6.81842 4.80808C6.74908 4.76584 6.68885 4.71022 6.64125 4.64444C6.46168 4.40502 6.21134 4.22817 5.92567 4.13893C5.64001 4.0497 5.33351 4.05261 5.04959 4.14725C4.76567 4.24189 4.51873 4.42346 4.34374 4.66625C4.16875 4.90903 4.07458 5.20072 4.07458 5.5C4.07458 5.79928 4.16875 6.09097 4.34374 6.33375C4.51873 6.57654 4.76567 6.75811 5.04959 6.85275C5.33351 6.94739 5.64001 6.9503 5.92567 6.86106C6.21134 6.77183 6.46168 6.59498 6.64125 6.35555C6.68844 6.28882 6.74854 6.23222 6.81799 6.18913C6.88744 6.14603 6.96483 6.1173 7.04558 6.10464C7.12633 6.09198 7.2088 6.09565 7.28811 6.11543C7.36741 6.13521 7.44195 6.1707 7.5073 6.2198C7.57264 6.26889 7.62748 6.3306 7.66856 6.40126C7.70963 6.47193 7.73612 6.55012 7.74644 6.6312C7.75676 6.71228 7.75071 6.79461 7.72865 6.87331C7.70659 6.95201 7.66897 7.02549 7.61801 7.0894Z" fill="#6E6E6E"/>
</svg>
