<svg width="15" height="15" viewBox="0 0 15 15" fill="none" xmlns="http://www.w3.org/2000/svg">
<path d="M4.044 0.84198C3.00312 1.38288 2.10347 2.16014 1.41716 3.11145C0.730862 4.06275 0.27701 5.16163 0.092 6.31998H0.527C3.332 6.25498 5.531 6.01198 7.327 5.46198C6.547 4.07898 5.595 2.72198 4.453 1.34198L4.452 1.34098L4.044 0.84198ZM0.002 7.31998L0 7.49998C0 9.51698 0.796 11.348 2.091 12.696L2.252 12.372C2.26095 12.3541 2.27096 12.3367 2.282 12.32C3.94 9.79798 5.816 8.29798 7.914 7.62498C8.056 7.57898 8.2 7.53698 8.344 7.49898C8.17602 7.11389 7.99695 6.73373 7.807 6.35898C5.842 6.99198 3.48 7.25198 0.544 7.31898H0.003L0.002 7.31998Z" fill="black"/>
<path d="M2.86011 13.393C4.18142 14.4364 5.81652 15.0027 7.50011 15C8.39311 15 9.25011 14.844 10.0431 14.558V13.838C9.79911 11.903 9.37011 10.128 8.72511 8.43401C8.55511 8.47601 8.38611 8.52401 8.21911 8.57701C6.39711 9.16201 4.69411 10.48 3.13411 12.845L2.86111 13.393H2.86011ZM11.0431 14.112C12.0098 13.5933 12.8511 12.8692 13.5079 11.9905C14.1648 11.1118 14.6212 10.1 14.8451 9.02601L14.2801 8.77101C12.6541 8.29301 11.1391 8.09701 9.72711 8.25601C10.3651 9.97601 10.7941 11.782 11.0391 13.744C11.0421 13.764 11.0431 13.784 11.0431 13.806V14.112ZM14.9841 7.99201C15.1161 6.0277 14.4675 4.09067 13.1791 2.60201L12.8821 2.93101C11.7121 4.35401 10.3761 5.34101 8.75211 6.01301C8.96411 6.43701 9.16211 6.86401 9.34511 7.29701C11.0171 7.05701 12.7751 7.28301 14.5961 7.82201C14.6183 7.82849 14.64 7.83651 14.6611 7.84601L14.9841 7.99201ZM12.4761 1.88801C11.1054 0.669269 9.33428 -0.0027266 7.50011 8.31526e-06C6.62211 8.31526e-06 5.78011 0.150008 4.99711 0.428008L5.22511 0.706008C6.44511 2.17901 7.45711 3.63501 8.28311 5.12401C9.82611 4.50101 11.0491 3.59001 12.1171 2.28701C12.122 2.28089 12.127 2.27489 12.1321 2.26901L12.4761 1.88901V1.88801Z" fill="black"/>
</svg>
